HIERARCHY
ROOT Hips
{
	OFFSET 0.000000 0.000000 0.000000 
	CHANNELS 6 Xposition Yposition Zposition Yrotation Zrotation Xrotation 
	JOINT Lumbar
	{
		OFFSET 0.000000 0.000000 0.000000 
		CHANNELS 3 Zrotation Xrotation Yrotation
		JOINT Neck
		{
			OFFSET 0.000000 0.445665 0.000000 
			CHANNELS 3 Zrotation Xrotation Yrotation
			End Site
			{
				OFFSET 0.000000 0.227535 0.000000 
			}
		}
		JOINT RightShoulder
		{
			OFFSET 0.019635 0.377685 0.194865 
			CHANNELS 3 Zrotation Xrotation Yrotation
			JOINT RightElbow
			{
				OFFSET 0.000000 -0.243375 0.000000 
				CHANNELS 2 Zrotation Yrotation
				JOINT RightWrist
				{
					OFFSET 0.000000 -0.264825 0.000000 
					CHANNELS 2 Zrotation Xrotation
					End Site
					{
						OFFSET 0.006600 -0.176220 0.000990 
					}
				}
			}
		}
		JOINT LeftShoulder
		{
			OFFSET 0.019635 0.377685 -0.194865 
			CHANNELS 3 Zrotation Xrotation Yrotation
			JOINT LeftElbow
			{
				OFFSET 0.000000 -0.243375 0.000000 
				CHANNELS 2 Zrotation Yrotation
				JOINT LeftWrist
				{
					OFFSET 0.000000 -0.264825 0.000000 
					CHANNELS 2 Zrotation Xrotation
					End Site
					{
						OFFSET 0.006600 -0.176220 -0.000990 
					}
				}
			}
		}
	}
	JOINT RightHip
	{
		OFFSET 0.052140 -0.069960 0.075570 
		CHANNELS 3 Zrotation Xrotation Yrotation
		JOINT RightKnee
		{
			OFFSET 0.000000 -0.402270 0.000000 
			CHANNELS 1 Zrotation
			JOINT RightAnkle
			{
				OFFSET 0.000000 -0.404085 0.000000 
				CHANNELS 3 Zrotation Xrotation Yrotation
				End Site
				{
					OFFSET 0.204105 -0.089430 0.008415 
				}
			}
		}
	}
	JOINT LeftHip
	{
		OFFSET 0.052140 -0.069960 -0.075570 
		CHANNELS 3 Zrotation Xrotation Yrotation
		JOINT LeftKnee
		{
			OFFSET 0.000000 -0.402270 0.000000 
			CHANNELS 1 Zrotation
			JOINT LeftAnkle
			{
				OFFSET 0.000000 -0.404085 0.000000 
				CHANNELS 3 Zrotation Xrotation Yrotation
				End Site
				{
					OFFSET 0.204105 -0.089430 -0.008415 
				}
			}
		}
	}
}
MOTION
Frames: 28
Frame Time: 0.02
0.00012 -0.00037 0.00089 -177.46745 -29.1395 -1.56877 42.51548 1.61703 -4.23428 -10.19001 -1.89473 -0.42145 -22.20444 -8.83915 1.14334 31.52373 89.22421 6.55921 -0.43356 -28.07502 10.69754 6.06236 29.39793 -115.41041 18.36872 -2.55262 29.6108 1.97331 -9.61194 -19.37451 -7.46655 -3.95087 -2.75851 32.32138 4.0947 2.30449 -26.08784 -8.31994 4.72593 3.21769
0.00046 -0.00037 0.00069 -177.46514 -29.33309 -1.57362 42.69207 1.60695 -4.24217 -10.28254 -1.88654 -0.42185 -22.52415 -8.84305 0.77449 31.32095 89.36945 6.61276 -0.43258 -28.23225 10.70551 6.07646 29.45256 -115.31758 18.4066 -2.5288 29.88125 1.96315 -9.70697 -19.44113 -7.46394 -3.94177 -2.75293 32.58635 4.12835 2.39176 -26.14085 -8.31584 4.72014 3.21518
0.0008 -0.00036 0.00049 -177.46273 -29.52581 -1.57844 42.86784 1.59689 -4.25022 -10.37483 -1.87847 -0.42226 -22.84305 -8.8471 0.40688 31.11924 89.51409 6.66615 -0.43159 -28.38865 10.71343 6.08999 29.50742 -115.22461 18.44428 -2.505 30.15057 1.95306 -9.80151 -19.50745 -7.46136 -3.93272 -2.74739 32.85024 4.16196 2.4789 -26.19364 -8.31173 4.71432 3.21266
0.00114 -0.00036 0.00029 -177.4604 -29.71874 -1.58327 43.04383 1.58684 -4.25812 -10.46709 -1.87031 -0.42266 -23.16182 -8.851 0.03916 30.91715 89.65884 6.71953 -0.4306 -28.54536 10.72138 6.10398 29.56194 -115.13201 18.48204 -2.48124 30.42011 1.94294 -9.89621 -19.57384 -7.45876 -3.92365 -2.74184 33.11434 4.19552 2.56593 -26.24647 -8.30763 4.70854 3.21016
0.00148 -0.00036 9e-05 -177.4582 -29.91267 -1.58814 43.22079 1.57678 -4.2658 -10.55954 -1.86201 -0.42303 -23.48129 -8.85469 -0.3298 30.71384 89.80431 6.77309 -0.42964 -28.70299 10.72939 6.1187 29.61609 -115.03969 18.52002 -2.45749 30.69097 1.9327 -9.99149 -19.64056 -7.45613 -3.91451 -2.73623 33.37969 4.22912 2.65303 -26.29956 -8.30356 4.70279 3.20767
0.00182 -0.00036 -0.00011 -177.45535 -30.10289 -1.59286 43.39406 1.56674 -4.27461 -10.6515 -1.85442 -0.42353 -23.79895 -8.85952 -0.69451 30.51551 89.9472 6.82612 -0.4286 -28.85675 10.73713 6.1297 29.67246 -114.94533 18.55707 -2.43358 30.95708 1.92294 -10.0845 -19.70606 -7.45364 -3.90566 -2.73081 33.64051 4.26272 2.74028 -26.35173 -8.29937 4.69684 3.20508
0.00215 -0.00036 -0.00031 -177.45379 -30.30023 -1.59787 43.57445 1.55666 -4.28116 -10.74438 -1.8454 -0.42378 -24.12002 -8.86202 -1.06747 30.30735 90.09501 6.88014 -0.4277 -29.01825 10.74541 6.1483 29.72425 -114.85524 18.59598 -2.41001 31.23224 1.91226 -10.18188 -19.7739 -7.45088 -3.89625 -2.72504 33.90998 4.29628 2.82711 -26.40566 -8.29541 4.69129 3.20271
0.00249 -0.00035 -0.00051 -177.45111 -30.49126 -1.60261 43.74849 1.54663 -4.28977 -10.83634 -1.83771 -0.42425 -24.43772 -8.86673 -1.43266 30.10831 90.23847 6.93328 -0.42667 -29.17238 10.75319 6.15964 29.78038 -114.7611 18.63312 -2.38612 31.49942 1.90238 -10.27539 -19.83967 -7.44836 -3.88733 -2.71958 34.17181 4.32987 2.91434 -26.45803 -8.29125 4.68538 3.20013
0.00283 -0.00035 -0.0007 -177.44675 -30.67358 -1.60704 43.91394 1.53661 -4.30098 -10.92754 -1.83159 -0.42502 -24.75238 -8.87392 -1.78912 29.92019 90.37593 6.98523 -0.42547 -29.31844 10.76034 6.163 29.84143 -114.66233 18.66834 -2.36185 31.75548 1.89368 -10.36355 -19.90255 -7.44617 -3.87911 -2.71456 34.42304 4.36355 3.00208 -26.50825 -8.28679 4.67899 3.19728
0.00317 -0.00035 -0.00091 -177.45114 -30.903 -1.61331 44.12629 1.52635 -4.29748 -11.02418 -1.81626 -0.42418 -25.08777 -8.86618 -2.19813 29.66856 90.54583 7.04368 -0.42522 -29.51374 10.77106 6.21498 29.873 -114.59118 18.71531 -2.33982 32.07143 1.8788 -10.48062 -19.98097 -7.4422 -3.86716 -2.70718 34.73147 4.3969 3.08697 -26.57011 -8.2839 4.67524 3.19595
0.00351 -0.00034 -0.0011 -177.43766 -31.03498 -1.61567 44.24135 1.51674 -4.32487 -11.10864 -1.82051 -0.42666 -25.3773 -8.89034 -2.49477 29.55133 90.64863 7.08863 -0.42302 -29.6034 10.77429 6.1627 29.96749 -114.46119 18.73704 -2.31303 32.26362 1.87654 -10.5379 -20.02733 -7.44189 -3.8629 -2.70466 34.92164 4.43081 3.17781 -26.60789 -8.2778 4.66602 3.19147
0.00386 -0.00026 -0.00125 -177.36985 -30.88066 -1.60733 44.07282 1.50783 -4.43919 -11.16519 -1.87779 -0.43892 -25.55699 -8.99961 -2.49222 29.80321 90.55427 7.09434 -0.41499 -29.41448 10.75656 5.83494 30.231 -114.17273 18.69255 -2.27312 32.09112 1.91276 -10.41953 -19.97879 -7.45256 -3.88154 -2.71665 34.76376 4.46744 3.28566 -26.57501 -8.26211 4.64059 3.17781
0.00421 -0.00016 -0.00139 -177.28511 -30.63177 -1.59508 43.80945 1.49979 -4.58416 -11.20844 -1.95482 -0.4544 -25.6875 -9.14136 -2.37504 30.19002 90.39477 7.08689 -0.40511 -29.1174 10.7315 5.40041 30.55861 -113.82469 18.62215 -2.22841 31.79873 1.96099 -10.24316 -19.89926 -7.46674 -3.90759 -2.73332 34.4912 4.50444 3.39929 -26.51877 -8.24335 4.60987 3.1611
0.00456 -7e-05 -0.00153 -177.21154 -30.43878 -1.58457 43.60061 1.49206 -4.7137 -11.25421 -2.02335 -0.46797 -25.83026 -9.26986 -2.30443 30.51482 90.27382 7.08689 -0.39636 -28.86237 10.70997 5.00791 30.85897 -113.50189 18.56164 -2.18596 31.57797 2.00111 -10.10101 -19.83856 -7.47871 -3.92906 -2.74707 34.28683 4.54049 3.50994 -26.4763 -8.22652 4.58232 3.14616
0.00488 2e-05 -0.00168 -177.12316 -30.19195 -1.57412 43.34426 1.48133 -4.84958 -11.31501 -2.09014 -0.48342 -26.01624 -9.39208 -2.25728 30.84266 90.11572 7.08066 -0.38633 -28.63698 10.6872 4.64296 31.15056 -113.18652 18.50905 -2.14328 31.28576 2.0522 -9.92595 -19.75812 -7.49327 -3.95558 -2.76413 34.01554 4.57974 3.62241 -26.42064 -8.20745 4.55153 3.12961
0.00528 0.00011 -0.00181 -177.06173 -30.03368 -1.56273 43.16321 1.4771 -4.97958 -11.34112 -2.16495 -0.49574 -26.09971 -9.53506 -2.13363 31.19636 90.01864 7.08428 -0.37859 -28.32442 10.66576 4.19484 31.47679 -112.84182 18.43383 -2.0998 31.11245 2.0836 -9.8052 -19.71097 -7.50331 -3.97342 -2.77547 33.85499 4.61252 3.73208 -26.38668 -8.19228 4.52622 3.11568
0.00593 0.00021 -0.00186 -177.07793 -30.15365 -1.54875 43.22394 1.49022 -5.0851 -11.27683 -2.25938 -0.49853 -25.91941 -9.72728 -1.83122 31.58605 90.1141 7.11847 -0.37713 -27.79634 10.64573 3.54783 31.87268 -112.42516 18.30152 -2.05603 31.31024 2.05486 -9.85335 -19.7678 -7.4995 -3.96489 -2.76943 34.04141 4.62639 3.83573 -26.42046 -8.18903 4.51757 3.10974
0.00666 0.0003 -0.00188 -177.12201 -30.36411 -1.53413 43.36185 1.5099 -5.18378 -11.17774 -2.36073 -0.49808 -25.63638 -9.93919 -1.45506 31.99749 90.27169 7.16297 -0.37813 -27.18474 10.62819 2.8201 32.30314 -111.97976 18.14693 -2.01115 31.6294 2.0064 -9.95738 -19.85839 -7.4911 -3.94748 -2.75755 34.34086 4.63393 3.9358 -26.47648 -8.18973 4.51456 3.10654
0.00736 0.0004 -0.00192 -177.15394 -30.52619 -1.52048 43.45735 1.52689 -5.28606 -11.09311 -2.45745 -0.49919 -25.39559 -10.14224 -1.10969 32.40053 90.39559 7.20267 -0.37835 -26.61199 10.61195 2.12612 32.72449 -111.55415 18.00387 -1.96676 31.88416 1.96881 -10.03264 -19.93062 -7.48513 -3.93456 -2.74866 34.57996 4.64496 4.03538 -26.52092 -8.18837 4.50881 3.10207
0.00805 0.0005 -0.00194 -177.18308 -30.71541 -1.5039 43.58014 1.54284 -5.3873 -11.01349 -2.56126 -0.50004 -25.17162 -10.34641 -0.77147 32.8021 90.54039 7.2425 -0.37711 -26.03087 10.58455 1.44018 33.12016 -111.10767 17.85631 -1.92367 32.17358 1.92361 -10.1198 -20.01448 -7.47788 -3.92003 -2.73857 34.85282 4.65333 4.14392 -26.57076 -8.18802 4.50364 3.09759
0.00876 0.00059 -0.002 -177.22488 -30.87107 -1.49324 43.66612 1.56228 -5.48871 -10.91564 -2.65154 -0.50063 -24.88912 -10.55203 -0.40275 33.21007 90.6571 7.28455 -0.37946 -25.44978 10.58189 0.72047 33.57677 -110.68652 17.71024 -1.87589 32.4214 1.88941 -10.19661 -20.08259 -7.47212 -3.90659 -2.72949 35.08389 4.66582 4.23311 -26.61494 -8.18655 4.49867 3.09381
0.00951 0.00063 -0.00212 -177.29482 -30.91011 -1.49981 43.62801 1.59157 -5.59185 -10.77383 -2.70369 -0.50135 -24.46838 -10.76058 0.03498 33.63022 90.68312 7.3315 -0.39145 -24.8813 10.63994 -0.07786 34.19171 -110.45044 17.60038 -1.83129 32.52338 1.89044 -10.22752 -20.09866 -7.47175 -3.89878 -2.72489 35.17059 4.69038 4.26753 -26.63814 -8.18099 4.49297 3.09145
0.01027 0.00066 -0.00227 -177.37656 -30.91299 -1.51224 43.55132 1.62378 -5.69529 -10.61549 -2.74165 -0.50191 -23.99313 -10.96898 0.49966 34.05537 90.67893 7.38021 -0.40684 -24.31793 10.7241 -0.9054 34.86637 -110.22398 17.48883 -1.77953 32.58003 1.90322 -10.24678 -20.0979 -7.47299 -3.89229 -2.72147 35.21206 4.71946 4.28292 -26.65493 -8.17419 4.4873 3.08968
0.01102 0.00069 -0.00243 -177.4531 -30.93421 -1.52155 43.49514 1.65348 -5.79872 -10.46603 -2.78545 -0.50251 -23.54385 -11.17489 0.94973 34.47771 90.68725 7.42724 -0.42051 -23.75773 10.801 -1.71633 35.51479 -109.91869 17.35959 -1.72006 32.65902 1.91048 -10.27444 -20.10519 -7.47335 -3.88482 -2.71729 35.27581 4.74702 4.30847 -26.67475 -8.16795 4.48158 3.08753
0.0118 0.00073 -0.00252 -177.53025 -30.95082 -1.5328 43.42909 1.68848 -5.90147 -10.30902 -2.8323 -0.50314 -23.08474 -11.39254 1.41287 34.90335 90.70186 7.47806 -0.43523 -23.17061 10.85873 -2.54631 36.16213 -109.91427 17.30388 -1.7049 32.73529 1.91759 -10.29211 -20.11199 -7.47414 -3.87848 -2.71376 35.33655 4.77211 4.32769 -26.69499 -8.16181 4.47617 3.08591
0.01251 0.00075 -0.00275 -177.60816 -30.96684 -1.54136 43.37337 1.71293 -6.00569 -10.16496 -2.86905 -0.5037 -22.63595 -11.58514 1.85367 35.3228 90.69662 7.52164 -0.44829 -22.64281 10.96232 -3.33989 36.8236 -109.30143 17.09945 -1.59819 32.80431 1.92837 -10.32558 -20.11533 -7.47454 -3.87043 -2.70934 35.39084 4.80348 4.35543 -26.71236 -8.15521 4.4701 3.08332
0.01304 0.00076 -0.00334 -177.68862 -30.99345 -1.54152 43.35605 1.70858 -6.11467 -10.05526 -2.88336 -0.50413 -22.21752 -11.71061 2.2296 35.72461 90.63832 7.54248 -0.45687 -22.2705 11.18796 -4.04673 37.52427 -106.87199 16.44567 -1.21959 32.86893 1.94371 -10.41908 -20.11361 -7.47287 -3.85551 -2.70121 35.4426 4.85118 4.41289 -26.72483 -8.14664 4.46192 3.0777
0.01349 0.00076 -0.00407 -177.76868 -31.01962 -1.53868 43.35004 1.69327 -6.22485 -9.96056 -2.88729 -0.5045 -21.81419 -11.81016 2.5806 36.11925 90.56544 7.557 -0.46279 -21.9596 11.45837 -4.71124 38.23367 -103.85476 15.64957 -0.75291 32.92635 1.96287 -10.52649 -20.10877 -7.47087 -3.83915 -2.69232 35.48809 4.90501 4.47924 -26.73425 -8.13781 4.45312 3.07112
